<?xml version="1.0" encoding="UTF-8"?> <!-- Generator: Adobe Illustrator 22.0.1, SVG Export Plug-In . SVG Version: 6.00 Build 0) --> <svg xmlns="http://www.w3.org/2000/svg" xmlns:xlink="http://www.w3.org/1999/xlink" version="1.1" id="Layer_1" x="0px" y="0px" viewBox="0 0 273.5 120" xml:space="preserve"> <style type="text/css"> .st0{fill:#AFAFAF;} </style> <g> <path d="M2.7,37h0.7c0,0,0.1,1.6,0.4,3.1c1.6,8.2,9.2,9.3,13.6,9.3c3.1,0,6-0.9,8-2.6c1.9-1.8,2.9-4.1,2.9-7c0-1.2-0.2-2.2-0.5-3.1 c-0.4-0.8-0.9-1.6-1.6-2.3c-0.7-0.7-1.5-1.2-2.4-1.7C23,32.1,22,31.7,21,31.4c-1-0.4-1.9-0.7-2.7-1L14.1,29c-0.7-0.2-1.5-0.5-2.5-1 c-1.1-0.4-2.2-1-3.2-1.8c-1-0.7-1.9-1.6-2.7-2.6c-0.8-1-1.4-2.1-1.9-3.3c-0.4-1.2-0.7-2.5-0.7-3.9c0-2.3,0.4-4.2,1.3-5.9 c0.8-1.6,1.9-3,3.3-4.1c2.2-1.7,4.8-2.6,7.5-3c1.5-0.2,3-0.3,4.5-0.2c1.5,0,3.3,0.2,4.8,0.7c2.5,0.7,4.1,1.8,4.1,1.8L30,3.2h0.4 v11.3h-0.7c-0.3-2.5-0.5-4.8-2.2-7c-2-2.5-5.1-3.5-8.7-3.5c-3.6,0.1-7.6,1.8-9,5.3c-0.5,1.1-0.8,2.4-0.8,3.8c0,2.3,0.7,4.1,2.1,5.4 c1.3,1.3,3.1,2.4,5.3,3.2c0.8,0.4,1.6,0.7,2.4,0.9l4.4,1.5l2.3,0.8c2.9,1,5.1,2.6,6.7,4.6c1.6,2,2.4,4.5,2.4,7.6 c0,2-0.4,3.8-1.3,5.4c-2.7,5.4-8.5,7.6-15.7,7.6c-8.1,0-13-3-13-3s-0.7,1.6-1.4,3H2.7V37z"></path> <path d="M62.7,49.9L48,11.6c-0.8-2.1-1.9-5.7-4.2-6.9c-1.5-0.7-3.4-0.5-3.4-0.5V3.2h18.9V4c0,0-2.1,0.2-2.8,0.4 c-1.3,0.3-3.2,1-1.6,5.4c0.5,1.6,9.9,26.6,11.5,30.9L76,18.3l-2.6-6.8c-0.8-2.1-2.1-5.8-4.2-6.9c-1.5-0.8-3.5-0.5-3.5-0.5l0.1-0.9 h18.9V4c0,0-2.1,0.2-2.8,0.4c-0.7,0.2-1.5,0.4-1.9,1.3c-0.3,0.7-0.4,1.6,0,3.1c0.1,0.3,0.2,0.7,0.3,1l0.4,1.1 c1.9,5.1,9.7,26,11.1,29.8c0,0,12.2-28.3,13.1-30.6c0.6-1.5,0.8-2.6,0.8-3.3c0-0.5-0.2-1-0.5-1.3c-0.3-0.4-0.7-0.7-1.3-0.9 c-0.7-0.3-1.6-0.5-2.4-0.5h-1.1V3.2H113v0.9h-0.4c-2.5,0-4.2,1.8-5.9,5.5c-1.5,3.2-5,11.6-5,11.6L89.3,49.9c-0.2,0.5-1,0.5-1.2,0 L76.7,20.2l-0.5,1.1l-0.5,1.4L63.9,49.9C63.7,50.4,63,50.4,62.7,49.9"></path> <path d="M108.1,49.3h0.4c2.5,0,4.3-1.8,6-5.6c1.5-3.2,5-11.7,5-11.7l9.3-21.6v-0.1l-0.6-1.6c0-0.1,0.1-0.1,0.1-0.1 c0.6-0.2,1.2-0.5,1.6-0.8c1.5-0.9,2.4-2.1,2.9-3.1c0.3-0.5,0.5-1.1,0.6-1.4c0.1-0.1,0.2-0.1,0.2,0l7.9,21.3c0,0,4.8,13,6.5,17.3 c0.8,2.1,2.6,6.3,4.2,7c1.3,0.5,3.5,0.5,3.5,0.5l-0.1,1h-19.1v-1c0,0,2.1,0,2.8-0.2c1.3-0.4,3.2-1.1,1.6-5.6 c-0.5-1.6-2-5.6-3.8-10.2h-16.9c-1,2.4-3.3,7.7-4.2,9.9c-0.6,1.5-0.8,2.7-0.8,3.4c0,0.5,0.2,1,0.5,1.3c0.4,0.4,0.8,0.7,1.3,0.9 c0.8,0.4,1.7,0.5,2.5,0.5h1v1h-12.8V49.3z M136.9,31.8l-0.5-1.3c-2.4-6.6-5.2-14-6.8-18.3l-8.4,19.6H136.9z"></path> <path d="M163.1,49.3h0.5c0.7,0,1.4-0.1,2.1-0.2c2.5-0.7,3.9-3,4.1-5.5c0.2-1.8,0.2-3.6,0.2-5.4l0.1-10.2V16.2 c0-2.2,0.1-4.5-0.1-6.8c-0.1-1.2-0.3-2.4-0.8-3.3l-0.5-0.7c-0.4-0.4-1-0.8-1.6-1c-1.1-0.4-3.9-0.4-3.9-0.4V3.2h12.7l27.9,35.6 c0-13.5-0.1-25.7-0.2-27.8c-0.1-1.8-0.4-3.6-1.5-5c-0.2-0.3-0.5-0.5-0.7-0.7c-1.1-0.8-2.4-1.2-3.8-1.2h-1V3.2H212v0.9h-0.5 c-0.7,0-1.3,0.2-1.9,0.4c-1.2,0.4-2.2,1.2-3,2.2c-0.7,0.9-1.2,2.1-1.3,3.3c-0.2,1.8-0.2,3.6-0.2,5.4v34.9h-1.4L171.5,9.1v19.1 c0,4.8-0.2,9.6,0.2,14.3c0.1,1.8,0.3,3.6,1.5,5c0.4,0.5,0.9,1,1.6,1.3c1,0.4,2,0.5,3,0.5h1v1h-15.6V49.3z"></path> <path d="M221.6,49.3c0,0,2.5-0.4,3.5-0.8c0.6-0.2,1.2-0.5,1.7-0.9c0.5-0.5,0.8-1.2,1.2-1.8c0.1-0.4,0.2-0.7,0.2-1.1 c0.2-0.9,0.3-1.8,0.3-2.7l0.1-3.1v-2.1v-26l-0.1-1.5c-0.1-2.1-0.7-4.2-3-4.9c-1.1-0.4-3.9-0.4-3.9-0.4V3.2h21.1v0.9 c0,0-2.8,0.1-3.9,0.4c-2,0.6-2.7,2.2-2.9,4L235.9,9v0.4l-0.1,1.5l0.1,16.1l0.7-0.7h0.1l15.3-14.7c0.9-0.9,1.7-1.9,2.1-3.6 c0.5-2.1-0.7-3.1-3.3-3.6c-1.1-0.2-3.9-0.4-3.9-0.4V3.2h21.1v0.9c0,0-2.7,0.1-3.9,0.4c-1.8,0.5-3.3,1-6.4,3.6l-14.8,14.2 c2,2.3,13.9,15.9,18.2,20.8c2.8,3.1,4.7,5,6.3,5.6c1.3,0.6,3.5,0.5,3.5,0.5v1h-20.8v-1c0,0,2.1,0,2.9-0.2c1.3-0.4,2.2-1.5-0.4-4.4 c-3.1-3.6-10.8-12.5-14.3-16.3c-0.4-0.5-1.1-0.5-1.5-0.1c-0.5,0.5-0.8,1.2-0.8,1.9v8.8l0.1,3.1c0.1,0.8,0.2,1.8,0.3,2.7 c0.1,0.4,0.2,0.7,0.3,1.1c0.2,0.7,0.6,1.3,1.2,1.8c0.5,0.4,1.1,0.7,1.7,0.9c0.9,0.4,3.4,0.8,3.4,0.8v1h-21.1V49.3z"></path> <path class="st0" d="M42.8,71.2c0-2.1,0.2-2.7,0.7-3.9c0.5-0.9,1.4-2.1,2.1-2.8l8.5-9.6l6-6.4c1.8-2.1,3.5-3.7,5.5-5.7 c5.3-5.1,9.4-8.3,11.5-9.6c1.1-0.7,0.9-0.5,1.6-0.4c1.6,0.9-1.1,3.5-10.1,10.3c-5.3,3.7-6.4,4.8-10.8,9.4C49.5,61.5,44,68,44,69.3 c0,0.4,0.5-0.2,2-1.6c2.3-2.5,6.2-5.7,10.5-8.5c4.4-3.2,9.6-6,11.7-4.4c1.2,1.1,1.1,2.7-0.5,4.6c-3.5,4.8-14.2,12.2-19.7,13.8 c-2,0.7-2.5,0.7-3.5,0c-0.9-0.5-0.9-0.5-0.9,0.4c0,0.5-0.2,0.7-0.4,0.5C42.9,73.9,42.8,72.6,42.8,71.2 M63.9,62 c2.7-2.5,4.3-5,4.3-6c-0.2-2.1-5-0.2-12.4,5c-5.5,3.9-11.9,9.6-11.9,11c0,0.2,0.4,0.4,0.7,0.5C46.7,73.7,58,67.5,63.9,62 M70.5,40.9c1.6-1.2,3.9-3.2,5.1-4.3c1.2-1.2,2-2.1,1.8-2.1c-0.4,0-5.3,4.1-7.8,6.6l-2.1,2L70.5,40.9z"></path> <path class="st0" d="M45.4,91.6c0.2-2,1.6-4.3,5-7.1c3.5-2.8,6.9-4.6,14.6-8.3c2.1-1.1,4.3-1.8,4.8-2.1c0.9-0.4,1.1-0.4,2.8-2.8 c2.8-3.5,4.4-5.7,5.7-6.9l0.7-0.9l-2,0.7c-3,1.1-4.3,1.2-4.6,0c-0.4-1.2,1.2-2.3,2-3c0.5-0.4,1.8-1.6,2.5-1.1 c0.2,0,0.4,0.2,0.4,0.4c0,0.2-0.7,0.7-1.6,1.2c-1.6,1.2-2.7,2.5-2.5,2.8c0.4,0.4,6-1.6,8.2-2.8c1.8-1.1,2.8-1.4,3-0.9 c0,0.2,0,0.4-0.4,0.5c-0.9,0.5-3.5,2.7-4.4,3.5c-1.1,1.2-6.2,7.5-6.2,7.6c10.8-4.8,13.7-6.2,19.9-9.6l1.6-0.9 c0.2,0.2,0.4,0.4,0.4,0.5l-1.6,1.1c-3.9,2.1-6,3.2-14.7,7.3l-5.1,2.3c-1.4,0.5-1.4,0.5-3.5,3C65,82.6,61.8,86,57.7,89.3 c-3,2.5-5.1,3.7-7.5,4.6C47.2,94.8,45.3,93.9,45.4,91.6 M67.4,77.8l2-2.7c0,0-0.2,0-0.4,0.2l-4.6,2.1c-7.1,3.4-10.6,5.5-13.8,8.2 c-2.8,2.1-4.4,4.3-4.8,6c-0.5,2.8,2.7,3,7.3,0.2C56.8,89.5,62.3,84.2,67.4,77.8"></path> <path class="st0" d="M105.8,75.1c0-1.4,3.4-7.3,6.6-11.2c2.5-3,3.5-3.4,0.4-1.6c-0.7,0.4-2.1,1.2-4.1,2.1c-3.5,2-5.1,2.1-5.5,1.2 s0.9-2.8,2.8-4.6c3.9-3.5,8-4.3,8-1.4v0.7l1.4-0.7c0.7-0.4,2.7-2,4.4-3.4c4.8-4.4,10.6-8.9,12.8-9.9c4.3-2.1,5-0.9,1.2,2.7 c-2.7,2.5-7.8,6-12.8,8.9c-3.4,1.8-5.9,4.1-9.8,9.6c-3,3.9-4.6,6.4-4.8,7.5c-0.2,1.4,1.1,1.2,3.7,0.2c5.1-2,6.4-2.5,15.8-6.7 c5.1-2.3,10.8-5.3,12.2-6.2c0.4-0.2,0.4-0.2,0.5-0.2c0.2,0,0.2,0.4,0.2,0.5c0,0.2-1.6,1.1-3.2,2c-3.4,2-22.4,10.6-27.7,12.2 C106.7,77.1,105.8,76.4,105.8,75.1 M109.5,62.3c1.6-1.1,3-2,3.4-2c0.2,0,0.4-0.4,0.4-0.7c0-0.9-1.4-0.9-3.5,0.2 c-1.8,1.1-6,4.8-5.7,5.3C104.5,65.5,106.8,64.5,109.5,62.3 M133.3,48.3c1.2-1.1,2-2,1.8-2c-0.7,0-4.6,2.7-8,5.3 c-5.1,4.3-5.3,4.4-3,3.2C127.1,53.3,130.8,50.6,133.3,48.3"></path> <path class="st0" d="M145.5,57.4c1.1-0.2,2,0.2,2.1,0.7c0.4,1.2-2,2.8-3.9,3.5c-1.1,0.4-2.1,0.5-3.2,0.7c-0.5,0-0.7,0.2-2.1,1.6 c-3.9,4.4-1.4,5.1,3.4,4.4c4.6-0.7,9.6-3.2,13.7-5.1l1.8-0.9l0.7-0.4l0.2,0.5c-0.2,0.2-0.9,0.7-2,1.2c-9.9,5.3-20.8,8.3-20.8,2.8 C135.4,63.8,142.3,57.9,145.5,57.4 M145.5,60c0.9-0.5,1.8-1.4,1.6-1.8c-0.2-0.4-0.9-0.2-2.5,0.7c-1.1,0.5-3.9,2.5-4.1,2.8 C142.9,61.5,144.3,60.8,145.5,60"></path> <path class="st0" d="M146,69.3l-0.4-1.8l-0.2-0.5l-0.2-0.2c0-0.2,0-0.2,0.2-0.4h0.4c2.1,0.9,3.4,0.9,5.9,1.1l3.2-3.2 c1.8-1.4,2.7-2.5,3-2.8l1.8-1.8c0.2,0.2,0.4,0.4,0.4,0.7c0,0.4-0.7,1.2-3.2,3.9l-3.4,3.4c6.9-0.4,13.7-2.5,17.2-4.3l2.1-1.1 l0.5-0.4c0.4,0.2,0.5,0.4,0.2,0.7l-1.4,0.9l-1.8,0.9c-5,2.5-12.1,3.9-17.6,4.1l-2.1,2C147.5,73.5,146.9,73.5,146,69.3 M149.1,70.3 c0.9-0.9,1.8-2,1.8-2c-1.4-0.2-2.7-0.4-3.2-0.5l-1.2-0.4c-0.2,0,0.2,1.8,0.7,3.2l0.4,1.4L149.1,70.3z"></path> <path class="st0" d="M190.8,62.3l0.7-0.4c0.2,0.2,0.4,0.4,0.4,0.5c0,0.2-1.1,0.7-1.6,1.1c-8.5,5.3-18.8,8.2-21.3,5.7 c-1.1-1.1-0.7-2.8,0.4-3.9c3.4-3.7,5.7-5.1,6.2-4.8c0.4,0.2,0.5,0.5,0.5,0.7c0,0.2-1.1,1.2-4.1,3.9c-1.6,1.2-2.7,2.7-2.7,3.2 c0,0.7,0.5,1.1,2.1,1.1C178.2,69.4,184.4,65.9,190.8,62.3 M179.9,57.4c-0.2,0.2-0.5,0.4-0.9,0C177.6,56,181.5,55.8,179.9,57.4"></path> <path class="st0" d="M139.7,108.7c0.9-3.2,3.4-6.7,7.3-10.5c5.7-5.5,12.4-10.5,27.7-19.2c6.2-3.5,8.7-5.3,9.8-5.9 c0.2-0.2,0.5-0.9,1.1-2.1c1.4-3.2,3-5.1,3.5-6.2c2.5-5,5.9-6,7.6-5.1c0.7,0.4,1.2,1.2,0.9,1.8c-0.2,0.4-0.2,0.2-0.4,0.2 c-0.2,0-0.2-0.2-0.2-0.4c0-0.4,0-0.2-0.9,0.5c-1.6,1.2-5,3-5.5,2.8c-0.4-0.2-0.5,0-1.1,0.9c-0.7,1.2-3.5,6.7-3.5,6.9l2-0.9 c6.6-3.2,11.7-5.9,14.9-7.6l2.7-1.6c0.2,0.2,0.5,0.4,0.5,0.5c-0.4,0.4-1.2,0.9-2.8,1.8c-3,1.8-8,4.1-16.9,8.3 c-0.7,0.4-0.7,0.5-0.9,0.9l-2.1,5c-3.2,7.5-5.3,11.7-8,16.5c-4.6,8.2-8.9,13-14.7,16.9c-3.2,2.1-7.6,3.9-10.8,4.6 c-1.8,0.4-4.8,0.4-6,0C139.8,115.8,138.6,112.7,139.7,108.7 M149.6,116.1c4.4-1.2,9.4-3.9,13.5-7.1c4.3-3.4,7.8-7.8,11.4-14.2 c2.7-4.8,4.3-8.3,7.5-15.6l2.3-5.1l-2,1.2l-7.1,4.3c-15.6,9.4-21.7,13.1-27.5,19c-3,3-5.1,5.7-6.4,8.5c-2,4.4-1.2,7.6,2.1,9.1 C144.6,116.7,147.6,116.7,149.6,116.1 M196.6,60.6c0.5-0.5-1.6-0.4-3.5,0.9c-1.6,1.1-2.7,2.5-2.1,2.5 C191.3,63.9,196.1,61.1,196.6,60.6"></path> <path class="st0" d="M211.9,62c0.5-1.1,1.1-2,0.9-2c-0.2-0.2-2.1,0.4-3.9,1.4c-1.2,0.5-2.7,1.6-4.1,3c-2.8,2.5-3,2.7-3.4,2 c-0.4-0.4,0-0.7,4.6-5c1.8-1.6,2.7-2,2.5-1.2c-0.2,0.4,0,0.4,0.7,0l1.8-0.7c1.6-0.5,1.8-0.5,2.5,0c0.7,0.7,0.5,1.1-0.7,3 c-2.5,3.5-2.8,5.1-1.1,5.9c3.4,1.2,13-3.4,17.4-5.9l1.1-0.5l0.2,0.2l0.2,0.4c0,0.2-1.6,1.1-2.1,1.4c-8.7,4.6-18.5,7.8-18.5,2.5 C209.9,65.4,210.6,63.8,211.9,62"></path> <path d="M113.9,84.5c0,0.2,0,0.3,0,0.4c0,0.3,0,0.6,0.1,0.9c0.1,0.3,0.2,0.5,0.4,0.7c0.2,0.2,0.3,0.3,0.6,0.5 c0.2,0.1,0.5,0.2,0.7,0.2c0.2,0,0.4,0,0.5-0.1c0.2-0.1,0.3-0.1,0.4-0.3c0.1-0.1,0.2-0.3,0.3-0.6l0.1,0c-0.1,0.4-0.3,0.7-0.6,0.9 c-0.3,0.2-0.7,0.3-1.2,0.3c-0.4,0-0.8-0.1-1.1-0.2c-0.3-0.1-0.6-0.3-0.8-0.6c-0.3-0.4-0.4-0.9-0.4-1.4c0-0.8,0.3-1.4,0.8-1.8 c0.4-0.3,0.9-0.5,1.4-0.5c0.3,0,0.5,0,0.8,0.1c0.2,0.1,0.4,0.2,0.6,0.4c0.2,0.3,0.4,0.6,0.4,1.1H113.9z M116.1,84.3 c0-0.3-0.1-0.6-0.2-0.8c-0.1-0.2-0.2-0.3-0.4-0.4c-0.2-0.1-0.3-0.1-0.5-0.1c-0.3,0-0.5,0.1-0.8,0.4c-0.2,0.3-0.3,0.6-0.4,1H116.1z"></path> <path d="M118.7,87.3v-1.5h0.1c0.1,0.4,0.2,0.6,0.4,0.9c0.3,0.4,0.6,0.6,0.9,0.6c0.2,0,0.4-0.1,0.6-0.2c0.2-0.1,0.3-0.3,0.3-0.6 c0-0.2-0.1-0.4-0.2-0.6c-0.1-0.1-0.2-0.2-0.3-0.2c-0.1-0.1-0.3-0.2-0.5-0.3c-0.4-0.2-0.7-0.4-0.9-0.6c-0.2-0.2-0.3-0.5-0.3-0.8 c0-0.3,0.1-0.6,0.3-0.8c0.2-0.3,0.5-0.4,0.9-0.4c0.2,0,0.3,0,0.5,0.1l0.2,0.1c0.1,0,0.1,0,0.1,0c0.1,0,0.1-0.1,0.2-0.2h0.1l0.1,1.2 h-0.1c0-0.2-0.1-0.3-0.1-0.4c0-0.1-0.1-0.2-0.2-0.3c-0.1-0.1-0.2-0.2-0.4-0.3c-0.1-0.1-0.3-0.1-0.4-0.1c-0.2,0-0.4,0.1-0.5,0.2 c-0.1,0.1-0.2,0.3-0.2,0.5c0,0.2,0.1,0.3,0.2,0.5c0.1,0.1,0.3,0.3,0.6,0.4l0.5,0.2c0.3,0.1,0.6,0.3,0.7,0.5 c0.2,0.2,0.2,0.5,0.2,0.8c0,0.4-0.1,0.7-0.3,0.9c-0.3,0.3-0.6,0.4-1,0.4c-0.2,0-0.5,0-0.7-0.1c-0.2-0.1-0.2-0.1-0.3-0.1 c0,0-0.1,0-0.1,0C119,87.2,118.9,87.2,118.7,87.3L118.7,87.3z"></path> <path d="M124.5,83h1.3v0.2h-1.3v3c0,0.4,0.1,0.6,0.2,0.8c0.1,0.1,0.2,0.2,0.3,0.2c0.1,0,0.2,0.1,0.3,0.1c0.2,0,0.3,0,0.4-0.1 c0.1-0.1,0.2-0.2,0.3-0.3l0.1,0.1c-0.1,0.2-0.3,0.4-0.5,0.5c-0.2,0.1-0.5,0.1-0.8,0.1c-0.4,0-0.7-0.1-0.9-0.2 c-0.1-0.1-0.2-0.2-0.2-0.3c0-0.1,0-0.3,0-0.6v-3.1h-0.5v-0.1c0.2-0.1,0.4-0.2,0.6-0.4c0.1-0.1,0.2-0.3,0.3-0.4 c0.1-0.1,0.1-0.3,0.2-0.5l0.1-0.2h0.2V83z"></path> <path d="M127.8,86.2c0.2,0,0.3,0.1,0.4,0.2c0.1,0.1,0.2,0.3,0.2,0.4c0,0.2-0.1,0.3-0.2,0.4c-0.1,0.1-0.3,0.2-0.4,0.2 c-0.2,0-0.3-0.1-0.4-0.2c-0.1-0.1-0.2-0.3-0.2-0.4c0-0.2,0.1-0.3,0.2-0.4C127.5,86.2,127.7,86.2,127.8,86.2"></path> <path d="M137.8,87.3h-4v-0.1c0.4-0.4,0.8-0.8,1.3-1.2c0.4-0.5,0.8-0.9,1.1-1.3c0.4-0.6,0.7-1.1,0.9-1.5c0.2-0.4,0.3-0.8,0.3-1.2 c0-0.5-0.2-0.9-0.5-1.2c-0.3-0.3-0.6-0.4-0.9-0.4c-0.3,0-0.6,0.1-0.8,0.3c-0.2,0.1-0.3,0.3-0.4,0.5c-0.1,0.2-0.1,0.4-0.1,0.7 c0,0.4,0.1,0.7,0.4,1c0.1,0.1,0.2,0.2,0.4,0.3c0.1,0.1,0.3,0.1,0.4,0.1c0,0,0.1,0,0.1,0l0,0.1c-0.2,0.1-0.5,0.2-0.7,0.2 c-0.3,0-0.5-0.1-0.8-0.3c-0.1-0.1-0.2-0.3-0.3-0.5c-0.1-0.2-0.1-0.4-0.1-0.6c0-0.5,0.2-1,0.6-1.3c0.4-0.3,0.9-0.5,1.5-0.5 c0.3,0,0.6,0.1,0.9,0.2c0.3,0.1,0.5,0.3,0.7,0.5c0.2,0.2,0.3,0.4,0.4,0.6c0.1,0.2,0.1,0.5,0.1,0.7c0,0.5-0.2,1-0.5,1.6 c-0.2,0.3-0.4,0.5-0.6,0.8c-0.2,0.3-0.6,0.6-1,0.9c-0.6,0.5-1,0.8-1.2,1h1.9c0.3,0,0.5,0,0.7-0.1c0.2,0,0.3-0.1,0.4-0.3 c0.1-0.1,0.2-0.3,0.3-0.6l0.1,0L137.8,87.3z"></path> <path d="M142,80.2c0.4,0,0.7,0.2,1,0.5c0.2,0.2,0.3,0.4,0.5,0.6c0.2,0.3,0.3,0.5,0.4,0.8c0.2,0.6,0.3,1.2,0.3,1.7 c0,0.5-0.1,1.1-0.3,1.7c-0.1,0.3-0.2,0.5-0.4,0.8c-0.2,0.2-0.3,0.5-0.5,0.6c-0.3,0.3-0.6,0.5-1,0.5c-0.4,0-0.7-0.2-1-0.5 c-0.2-0.2-0.3-0.4-0.5-0.6c-0.2-0.2-0.3-0.5-0.4-0.8c-0.2-0.6-0.4-1.2-0.4-1.7c0-0.5,0.1-1.1,0.4-1.7c0.1-0.3,0.2-0.5,0.4-0.8 c0.2-0.3,0.3-0.5,0.5-0.6C141.3,80.4,141.7,80.2,142,80.2 M142,80.4c-0.1,0-0.3,0.1-0.4,0.2c-0.1,0.1-0.2,0.2-0.4,0.4 c-0.1,0.1-0.2,0.3-0.2,0.6c-0.1,0.2-0.1,0.5-0.2,0.7c-0.1,0.5-0.2,1.1-0.2,1.6c0,0.5,0.1,1.1,0.2,1.6c0.1,0.2,0.1,0.5,0.2,0.7 c0.1,0.2,0.2,0.4,0.2,0.6c0.1,0.2,0.2,0.3,0.4,0.4c0.1,0.1,0.3,0.2,0.4,0.2c0.1,0,0.3-0.1,0.4-0.2c0.1-0.1,0.3-0.2,0.4-0.4 c0.1-0.1,0.2-0.3,0.2-0.6c0.1-0.2,0.1-0.5,0.2-0.7c0.1-0.5,0.2-1.1,0.2-1.6c0-0.5-0.1-1.1-0.2-1.6c0-0.2-0.1-0.5-0.2-0.7 c-0.1-0.2-0.2-0.4-0.2-0.6c-0.1-0.2-0.2-0.3-0.4-0.4C142.3,80.4,142.2,80.4,142,80.4"></path> <path d="M148,80.2c0.4,0,0.7,0.2,1,0.5c0.2,0.2,0.3,0.4,0.5,0.6c0.2,0.3,0.3,0.5,0.4,0.8c0.2,0.6,0.3,1.2,0.3,1.7 c0,0.5-0.1,1.1-0.3,1.7c-0.1,0.3-0.2,0.5-0.4,0.8c-0.2,0.2-0.3,0.5-0.5,0.6c-0.3,0.3-0.6,0.5-1,0.5c-0.4,0-0.7-0.2-1-0.5 c-0.2-0.2-0.3-0.4-0.5-0.6c-0.2-0.2-0.3-0.5-0.4-0.8c-0.2-0.6-0.4-1.2-0.4-1.7c0-0.5,0.1-1.1,0.4-1.7c0.1-0.3,0.2-0.5,0.4-0.8 c0.2-0.3,0.3-0.5,0.5-0.6C147.3,80.4,147.7,80.2,148,80.2 M148,80.4c-0.1,0-0.3,0.1-0.4,0.2c-0.1,0.1-0.2,0.2-0.4,0.4 c-0.1,0.1-0.2,0.3-0.2,0.6c-0.1,0.2-0.1,0.5-0.2,0.7c-0.1,0.5-0.2,1.1-0.2,1.6c0,0.5,0.1,1.1,0.2,1.6c0.1,0.2,0.1,0.5,0.2,0.7 s0.2,0.4,0.2,0.6c0.1,0.2,0.2,0.3,0.4,0.4c0.1,0.1,0.3,0.2,0.4,0.2c0.1,0,0.3-0.1,0.4-0.2c0.1-0.1,0.3-0.2,0.4-0.4 c0.1-0.1,0.2-0.3,0.2-0.6c0.1-0.2,0.1-0.5,0.2-0.7c0.1-0.5,0.2-1.1,0.2-1.6c0-0.5-0.1-1.1-0.2-1.6c0-0.2-0.1-0.5-0.2-0.7 c-0.1-0.2-0.2-0.4-0.2-0.6c-0.1-0.2-0.2-0.3-0.4-0.4C148.3,80.4,148.2,80.4,148,80.4"></path> <path d="M156.1,80.4l-2.5,6.3l-0.1,0.3c-0.1,0.1-0.1,0.2-0.2,0.3c-0.1,0.1-0.2,0.1-0.3,0.1c-0.1,0-0.2,0-0.3-0.1 c-0.1-0.1-0.1-0.2-0.1-0.3c0-0.1,0-0.2,0.1-0.4l0.1-0.2l2.7-5.2h-2.2c-0.2,0-0.3,0-0.4,0c-0.1,0-0.2,0.1-0.3,0.1 c-0.1,0.1-0.2,0.2-0.3,0.3c-0.1,0.1-0.2,0.3-0.3,0.5l0,0.1H152l0.5-2h0.1c0,0.1,0.1,0.2,0.1,0.2c0.1,0,0.2,0,0.3,0L156.1,80.4z"></path> </g> </svg> 